# xmcd
#
# Track frame offsets:
#	150
#	22159
#	42253
#	58404
#	78383
#	97365
#	129339
#	146645
#	168987
#	190758
#	208695
#	226880
#
# Disc length: 3308 seconds
#
# Revision: 0
# Processed by: cddbd v1.5.1PL2 Copyright (c) Steve Scherf et al.
# Submitted via: dBpowerAMP V4.0
#
DISCID=ad0cea0c
DTITLE=Brad Hines - Who We Are
DYEAR=2005
DGENRE=Country
TTITLE0=Forever In His Debt
TTITLE1=Priveleges Of Youth
TTITLE2=Hardest Lesson
TTITLE3=How It All Went Down
TTITLE4=Out In The Rain
TTITLE5=Chihuahua
TTITLE6=True Love
TTITLE7=Standard Sunday Morning
TTITLE8=Who We Are
TTITLE9=Masquerade
TTITLE10=Lonesome Town
TTITLE11=Hello It's Me
EXTD=Bought this album off the artist when he was playing in a beer garden at Ft. Worth.
EXTT0=
EXTT1=
EXTT2=
EXTT3=
EXTT4=
EXTT5=
EXTT6=
EXTT7=
EXTT8=
EXTT9=
EXTT10=
EXTT11=
PLAYORDER=
